# xmcd
# 
# Track frame offsets:
#     150
#     15987
#     32072
#     47937
#     61510
#     79892
#     99285
#     114690
#     131077
#     147272
# 
# Disc length: 2145
# 
# Revision: 6
# Processed by: cddbd v1.5.2PL0 Copyright (c) Steve Scherf et al.
# Submitted via: fre:ac v1.0.31
# 
DISCID=7d085f0a
DTITLE=Lisa Brokop - Every Little Girl's Dream
DYEAR=1994
DGENRE=Country
TTITLE0=Take That
TTITLE1=One Of Those Nights
TTITLE2=You Already Drove Me There
TTITLE3=Give Me A Ring Sometime
TTITLE4=Every Little Girl's Dream
TTITLE5=Never Did Say Goodbye
TTITLE6=Who Needs You
TTITLE7=Not Here In My Arms
TTITLE8=Let Me Live Another Day
TTITLE9=Never Gonna Be Your Fool Again
EXTD=Patriot Records
EXTT0=
EXTT1=
EXTT2=
EXTT3=
EXTT4=
EXTT5=
EXTT6=
EXTT7=
EXTT8=
EXTT9=
PLAYORDER=
